<?xml version="1.0" encoding="utf-8"?>
<!-- Generator: Adobe Illustrator 22.0.1, SVG Export Plug-In . SVG Version: 6.00 Build 0)  -->
<svg version="1.1" id="Calque_1" xmlns="http://www.w3.org/2000/svg"  x="0px" y="0px"
	 viewBox="0 0 432 432" style="enable-background:new 0 0 432 432;" xml:space="preserve">
<style type="text/css">
	.st0{fill:#B78D5C;}
	.st1{fill:#EBCEC6;}
	.st2{fill:#D4B67E;}
	.st3{fill:#EF798A;}
	.st4{fill:#FBD8E3;}
	.st5{fill:#660A1E;}
	.st6{fill:#990033;}
	.st7{fill:#07512C;}
	.st8{fill:#8CC63F;}
	.st9{fill:#006837;}
	.st10{fill:#CCCCCC;}
	.st11{fill:#FFFFFF;}
	.st12{fill:#8A1A31;}
	.st13{fill:#A7A6AA;}
	.st14{fill:#D3A9B2;}
	.st15{fill:#2A2A2B;}
	.st16{fill:#DDC090;}
	.st17{fill:#AF434B;}
	.st18{fill:#62A581;}
	.st19{fill:#94C16C;}
	.st20{fill:#B9011B;}
	.st21{fill:#BABABA;}
	.st22{fill:#754C24;}
	.st23{fill:#A67C52;}
	.st24{fill:#8C6239;}
	.st25{fill:#C69C6D;}
	.st26{fill:#9E1E28;}
	.st27{fill:#D6C188;}
	.st28{fill:#BF364A;}
	.st29{fill:#A1272D;}
	.st30{fill:#BFA76B;}
	.st31{fill:#DCDEDD;}
	.st32{fill:#D89A5D;}
	.st33{fill:#F5EDDB;}
	.st34{fill:#603813;}
	.st35{fill:#4A7575;}
	.st36{fill:#7F3244;}
	.st37{fill:#9E7E5E;}
	.st38{fill:#C1272D;}
	.st39{fill:#561217;}
	.st40{fill:#C49F7A;}
	.st41{fill:#534741;}
	.st42{fill:#999999;}
	.st43{fill:#A80031;}
	.st44{fill:#1A1A1A;}
	.st45{fill:#333333;}
	.st46{fill:#B3B3B3;}
	.st47{fill:#B3A6AD;}
	.st48{fill:#B6B155;}
	.st49{fill:#679CBA;}
	.st50{fill:#0071BC;}
	.st51{fill:#F7931E;}
	.st52{fill:#821119;}
	.st53{fill:#39B54A;}
	.st54{fill:#1B1464;}
	.st55{fill:#FAF3E3;}
	.st56{fill:#DCD2BD;}
	.st57{fill:#F5EDDA;}
	.st58{fill:#815D3C;}
	.st59{fill:#F69331;}
	.st60{fill:#BCA791;}
	.st61{fill:#F9D51D;}
	.st62{fill:#704638;}
	.st63{fill:#A7DBD7;}
	.st64{fill:#DED7CD;}
	.st65{fill:#E89024;}
	.st66{fill:#EACAAC;}
	.st67{fill:#D8B195;}
	.st68{fill:#A50423;}
	.st69{fill:#CC7312;}
	.st70{fill:#9EC5FF;}
	.st71{fill:#6D86B4;}
	.st72{fill:#2E363A;}
	.st73{fill:#FFCC00;}
	.st74{fill:#B58847;}
	.st75{fill:#563315;}
	.st76{fill:#ED0A3A;}
	.st77{fill:#A62714;}
	.st78{fill:#247E5B;}
	.st79{fill:#176041;}
	.st80{fill:#61B756;}
	.st81{fill:#EDDBAE;}
	.st82{fill:#3F3F3F;}
	.st83{fill:#595959;}
	.st84{fill:#484849;}
	.st85{fill:#EFD1B4;}
	.st86{fill:#E0E0E2;}
	.st87{fill:#CCCCCE;}
	.st88{fill:#CEC76B;}
	.st89{fill:#42210B;}
	.st90{fill:#FCACBC;}
	.st91{fill:#D6B994;}
	.st92{fill:#F8C2C2;}
	.st93{fill:#E4D48E;}
	.st94{fill:#A57C53;}
	.st95{fill:#96704B;}
	.st96{fill:#9D6D47;}
	.st97{fill:#591427;}
	.st98{fill:#7CCC71;}
	.st99{fill:#C7B299;}
	.st100{fill:#998675;}
	.st101{fill:#7DC34D;}
	.st102{fill:#80694F;}
	.st103{fill:#FF1C2E;}
	.st104{fill:#A51B29;}
	.st105{fill:#00673B;}
	.st106{fill:#B88464;}
	.st107{fill:#CA986F;}
	.st108{fill:#3F2316;}
	.st109{fill:#F1F1F2;}
	.st110{fill:#00924A;}
	.st111{fill:#C7202F;}
	.st112{fill:#BBBDBF;}
	.st113{fill:#58595B;}
	.st114{fill:#D0D2D3;}
	.st115{fill:#6C6E70;}
	.st116{fill:#663818;}
	.st117{fill:#FF9134;}
	.st118{fill:#AC8D6B;}
	.st119{fill:#CE1F32;}
	.st120{fill:#00B252;}
	.st121{fill:#804D34;}
	.st122{fill:#61A6AF;}
	.st123{fill:#4C838D;}
	.st124{fill:#E6E6E6;}
	.st125{fill:#E6E7E7;}
	.st126{fill:#55396B;}
	.st127{fill:#6F4696;}
	.st128{fill:#9C2D8C;}
	.st129{fill:#915D3F;}
	.st130{fill:none;}
	.st131{fill:#00BCB9;}
	.st132{fill:#00BBB8;}
	.st133{fill:#6C328D;}
	.st134{fill:#5D4A42;}
	.st135{fill:#746559;}
	.st136{fill:#009245;}
	.st137{fill:#808184;}
	.st138{fill:#00A69C;}
	.st139{fill:#0078B8;}
	.st140{fill:#9F847A;}
	.st141{fill:#EECCB3;}
	.st142{fill:#241F20;}
	.st143{fill:#0D5408;}
	.st144{fill:#C9800A;}
	.st145{fill:#083A04;}
	.st146{fill:#BF001A;}
	.st147{fill:#AA0012;}
	.st148{fill:#9E620B;}
	.st149{fill:#A80E28;}
	.st150{fill:#0C3A1F;}
	.st151{fill:#C10A0A;}
	.st152{fill:#0A3D06;}
	.st153{fill:#A30738;}
	.st154{fill:#7F0A2E;}
	.st155{fill:#D8712B;}
	.st156{fill:#C15105;}
	.st157{fill:#F4A00B;}
	.st158{fill:#10440A;}
	.st159{fill:#A00E0E;}
	.st160{fill:#0F230D;}
	.st161{fill:#B20B33;}
	.st162{fill:#E5E5E5;}
	.st163{fill:#11722D;}
	.st164{fill:#0B281A;}
	.st165{fill:#E59D1F;}
	.st166{fill:#C60924;}
	.st167{fill:#960820;}
	.st168{fill:#AD1431;}
	.st169{fill:#E24756;}
	.st170{fill:#CE364C;}
	.st171{fill:#A50707;}
	.st172{fill:#4A9B29;}
	.st173{fill:#468E24;}
	.st174{fill:#AF0E22;}
	.st175{fill:#EDECE6;}
	.st176{fill:#54220E;}
	.st177{fill:#592C1C;}
	.st178{fill:#EFEAC7;}
	.st179{fill:#042111;}
	.st180{fill:#A80C0C;}
</style>
<g>
	<path class="st113" d="M173.3,272v-12.2c0-0.2,0-0.4,0-0.6c-0.5-3.5-4.9-5.9-14.3-7.7c-7.9-1.5-18.3-2.4-29.4-2.4
		c0.1-4.8,3.3-9.2,2.7-14c0-0.3-0.5-0.3-0.5,0c-0.4,2.9-1.7,5.6-2.7,8.3c-0.3,0.7-0.5,1.4-0.7,2.1c-0.3,1.2-0.5,2.4-0.6,3.6
		c-1,0-1.9,0-2.9,0c0.3-3.7,1.9-6.9,3.1-10.5c1.9-5.9,1.5-13.1,0.9-19.4c-0.1-0.5-0.8-0.5-0.9,0c-0.6,3.1-1.6,6.3-2,9.1
		c-0.7,4.1-1.8,7.6-3.4,11.4c-0.9,2.2-1.6,4.8-1.8,7.4c0,0.7,0,1.5,0,2.2c-8.1,0.3-15.6,1.1-21.6,2.2c-9.4,1.8-13.8,4.2-14.3,7.7
		c0,0.2,0,0.4,0,0.6V352c0,0.4,0.1,0.9,0.3,1.2c1.5,4,8.6,5.8,14.7,6.9c7.9,1.5,18.3,2.3,29.2,2.3s21.3-0.8,29.2-2.3
		c6.1-1.1,13.1-2.9,14.6-6.8c0.2-0.4,0.3-0.8,0.3-1.3v-9.5c13.4-3.7,23.1-16.3,25-30.7C200.8,293.7,191.2,276.1,173.3,272z
		 M159.4,349.8l-4.9,5.4c-0.1,0-0.2,0-0.3,0v-18.9c0,0,0,0,0-0.1l5.2-5.4v6c-1.7,0.2-3.4,0.9-3.6,2.6c-0.2,1.8,1.8,2.9,3.6,3.4
		L159.4,349.8C159.4,349.8,159.4,349.8,159.4,349.8z M98.6,268c0.2,0,0.4,0.1,0.6,0.1c2.5,0.5,5.2,0.9,8.1,1.2l-8.7,8.7V268z
		 M160.2,324c-0.1,0.1-0.1,0.2-0.2,0.4c-2.5-4.1-3.5-8.3-3.1-12.5c0-0.3,0-0.5-0.1-0.7l9-9.2C164.6,311.1,162.8,318.1,160.2,324z
		 M123.7,340.2l-5.3,5.4v-16l5.2-5.4V340C123.7,340.1,123.7,340.1,123.7,340.2z M131.3,337.3c-0.8,6.8-1.6,12.9-4.4,19.2
		c-0.3-0.3-0.7-0.5-1.1-0.5c-2-2.8-2.5-6.7-2.9-10L131.3,337.3z M100,304.3l6-5.9v16.1c0,0.1,0,0.2,0,0.2l-5.9,6.2v-16.2
		C100,304.6,100,304.5,100,304.3z M95.9,303.6c4.1-7.2,7.7-15.4,8.1-24.1c6.9-0.2,13.8-1.8,20.5-4.6c-0.1,0.1-0.2,0.3-0.3,0.4
		L95.9,303.6z M127.5,276.9l6.5-6.4c0.1,0,0.2,0,0.4,0v14.8l-6.8,7.1V276.9z M136.3,311.2l4.9-5v16.2l-4.8,4.9v-15.5
		C136.4,311.5,136.4,311.3,136.3,311.2z M134.9,306.2c-0.2,0.5-0.5,1-0.7,1.5c-2-4.8-2.5-10.3-1.3-15.9l7-7.3
		C139.5,291.9,137.8,299.4,134.9,306.2z M129.6,295.1c-0.3,3.9,0.1,7.7,1.2,11.2c-2.9-1.6-6.2-2.5-9.6-2.5L129.6,295.1z
		 M118.7,301.5v-15.8l5.5-5.4v15.6L118.7,301.5z M109.3,295l5.9-5.9v15.9l-5.9,6.1V295z M118.6,306.5c0.2,0.1,0.5,0.2,0.8,0.1
		c4.3-0.5,8.9,0.8,12.3,3.5c-0.3,0.1-0.5,0.3-0.7,0.4c-6,3-12.6,3.9-20.5,4.5L118.6,306.5z M133,314.6v16.1c0,0,0,0.1,0,0.1
		l-5.9,6.1v-15.7c0-0.1,0-0.2,0-0.4L133,314.6z M134.9,336.4c0.1-0.6,0.1-1.2,0.2-1.7c4.6,0.6,9.5-0.3,13.9-1.1
		c0.5-0.1,1.1-0.2,1.6-0.3c0.5-0.1,1.3-0.3,2.2-0.5l-21.6,22.3C133.5,348.9,134.2,342.8,134.9,336.4z M149.9,330
		c-0.5,0.1-1.1,0.2-1.6,0.3c-3.6,0.7-7.6,1.4-11.2,1.2l6.7-6.8c0.2-0.1,0.4-0.3,0.6-0.5c0.3,0,0.5,0,0.8-0.1c3.4-1.3,8.4,1.1,12,2.8
		c0.1,0.1,0.3,0.1,0.4,0.2C155.4,328.5,152.5,329.5,149.9,330z M150.8,312.6l-6.2,6.3v-15.8c0-0.2,0-0.3-0.1-0.4l6.2-6.4v16.2
		C150.8,312.5,150.8,312.5,150.8,312.6z M158.8,304.3l-4.6,4.7v-16.4l4.6-4.7v15.8C158.7,304,158.8,304.2,158.8,304.3z M155.1,322.2
		c-2.3-1-4.7-1.8-7.1-1.9l5.5-5.6C153.6,317.2,154.2,319.7,155.1,322.2z M167.8,310.8v6.5l-2.3,2.4
		C166.4,316.9,167.2,314,167.8,310.8z M167.8,295.1l-5.7,5.8v-15.8c0-0.2,0-0.4-0.1-0.5l5.8-6V295.1z M165.2,275.8
		c0.1,0.1,0.2,0.2,0.3,0.3L140,302.5c2.1-6.4,3.3-13.1,3.4-19.9C150.9,282.8,157.8,279.8,165.2,275.8z M145,279.2l7.6-7.8
		c0.1,0,0.3,0,0.4,0c3.6-0.8,7.6-0.4,11,1.2C157.5,276.1,151.3,278.9,145,279.2z M137.8,281.7v-11.4c4.1-0.2,8.1-0.5,11.8-0.9
		L137.8,281.7z M105.5,276l6.1-6.1c0,0,0.1-0.1,0.1-0.1c4.5,0.4,9.3,0.6,14.3,0.7C119.3,273.7,112.4,275.6,105.5,276z M100.4,281.1
		c-0.9,9.1-5.6,17.8-10.1,25.3v-15.2L100.4,281.1z M90.3,313.9l6.3-6.2v16.1c0,0.2,0,0.4,0.1,0.5l-6.3,6.6V313.9z M90.3,335.3
		C90.4,335.3,90.4,335.3,90.3,335.3c0,0.2,0,0.4,0,0.6V335.3z M90.3,340.7c0.1,0.8,0.2,1.7,0.4,2.6c0.3,1.7,0.9,3.3,1.7,4.8
		c-0.7,0.9-1.4,1.8-2.1,2.7V340.7z M93.4,342.8c-0.3-1.7-0.4-3.4-0.4-4.7c0-2.3,0.2-5.1,1.8-6.7c0.2-0.2,0.3-0.4,0.4-0.7l9.1-9.4
		c-1.8,8.7-5.2,16.9-10,24.2C93.8,344.7,93.6,343.8,93.4,342.8z M108.2,318.6C108.2,318.6,108.2,318.6,108.2,318.6
		C108.3,318.6,108.3,318.6,108.2,318.6c5.7-0.4,12.5-0.8,18.8-2.9l-28.7,29.6C103.4,337.2,106.8,328.2,108.2,318.6z M109.1,339.2
		l5.9-6.1v15.3c0,0.2,0,0.4,0.1,0.6l-6,6.2V339.2z M120.5,348.4c0.4,2.8,1.1,5.8,2.7,8.4c-3.8-0.1-7.2-0.3-10.3-0.6L120.5,348.4z
		 M142.6,348.2v8.3c-2.6,0.2-5.4,0.3-8.3,0.4L142.6,348.2z M146,344.7l4.8-4.9v16c-1.5,0.2-3.1,0.4-4.8,0.5V344.7z M162.8,343.4
		c0.8,0.1,1.6,0.1,2.4,0.1l-2.4,2.6V343.4z M167.8,336.4c-1.6,0.4-3.3,0.6-5,0.5v-8.5c0-0.3-0.1-0.6-0.2-0.8l5.2-5.4V336.4z
		 M167.8,270.5c-0.2,0-0.3,0.1-0.5,0.2c-0.2,0.1-0.3,0.2-0.5,0.3c-2.6-1.6-5.5-2.5-8.5-2.7c0.2,0,0.4-0.1,0.5-0.1
		c3.7-0.7,6.7-1.5,8.9-2.5V270.5z M99.8,256.9c5.3-1.1,12.8-2,22.4-2.3c0.4,0.7,0.8,1.4,1.3,2c0.6,0.8,1.9,0.3,1.9-0.7
		c0-0.4,0-0.9-0.1-1.4c0.8,0,1.7,0,2.6,0c0,0.2,0.1,0.5,0.1,0.7c0.2,1.1,0.6,2.4,1.6,3c0.4,0.2,1,0.3,1.2-0.2c0.1-0.2,0-0.4,0-0.7
		c-0.3-0.9-0.5-1.9-0.7-2.9c12.4,0.1,21.9,1.1,28.2,2.4c4.8,1,7.8,2,9.1,2.9c-1.1,0.8-3.6,1.7-7.5,2.6c-6.5,1.5-16.8,2.7-30.9,2.7
		s-24.4-1.3-30.9-2.7c-3.9-0.9-6.4-1.8-7.5-2.6C92,258.9,95,257.9,99.8,256.9z M95.2,267.3v14c0,0.1,0,0.1,0,0.2l-4.9,4.9v-20.7
		C91.7,266.3,93.3,266.8,95.2,267.3z M95.3,353.5l10.4-10.7v12.8C101.3,354.9,97.9,354.2,95.3,353.5z M160.1,354.2l7.7-8.4v5.6
		C167.1,352.1,164.5,353.2,160.1,354.2z M186.5,310.4c-1.1,8-5.8,18.4-13.2,23.5v-55c4.2,1.8,7.6,5.9,9.7,9.8
		C186.5,295.4,187.5,303,186.5,310.4z"/>
	<path class="st113" d="M121.1,236c1.6-2.9,1.5-6.9,2.4-10.2c0-0.2-0.1-0.3-0.2-0.1c-0.8,1.1-1.4,2.4-1.7,3.7
		c-0.5,2.1-0.6,4.3-0.9,6.5C120.7,236.1,121,236.2,121.1,236z"/>
</g>
<g>
	<path class="st137" d="M338.7,103.1c-4.6-7.7-11.9-14.4-21-16.5V76.4c0-0.2,0-0.4,0-0.5c-0.9-8.7-22.7-11.1-35.7-11.1
		c-13,0-34.9,2.3-35.8,11.1c0,0.2,0,0.4,0,0.5v121.9c0,9.2,22.5,11.6,35.8,11.6c13.3,0,35.8-2.4,35.8-11.6v-6.3
		c14.1-2.9,22.2-18.5,25.9-31C348.9,142.6,348.9,120.1,338.7,103.1z M291.3,203.5l6.2-9.9c2.2-0.3,4.5-0.8,6.8-1.3l-6.3,10.4
		C296,203,293.7,203.3,291.3,203.5z M252.2,179.6v-12.4c4.5,1.5,15.7,4.8,30.5,4.8c8.6,0,18.5-1.1,28.9-4.3v8.8
		c-0.8,0.4-1.7,0.8-2.5,1.1c0,0-0.1,0-0.2,0.1c0.1,0,0.1-0.1,0.2-0.1c0,0-1.3,0.3-1.3,0.3c-0.4,0.1-0.8,0.1-1.2,0.1
		c0.5,0,0.5,0-0.2,0c0.1,0,0.1,0,0.2,0c-0.1,0-0.2,0-0.4,0c-3.6-0.3-6.1,1.8-5.7,5C276.3,187.4,256.6,181.2,252.2,179.6z M293.5,191
		c-2.3,0.3-4.6,0.4-6.8,0.5l-3.9-3.9c2.1,0,4.3-0.1,6.5-0.2L293.5,191z M269.6,203.2l5.7-8.8c2.3,0.2,4.8,0.3,7.4,0.3l-5.9,9.1
		C274.1,203.6,271.8,203.4,269.6,203.2z M259,201.2l5.2-8.3c2.3,0.4,4.9,0.8,7.7,1.1l-5.6,8.7C263.4,202.3,260.9,201.8,259,201.2z
		 M260.5,185.1c2,0.4,4.2,0.9,6.6,1.3l4.5,4.5c-2.2-0.3-4.3-0.6-6.3-0.9L260.5,185.1z M272,187c2,0.2,4.2,0.4,6.4,0.5l4,4
		c-2.1,0-4.2-0.1-6.1-0.2L272,187z M260.3,85.9c2.4,0.5,5,0.9,7.5,1.3l-2.9,4.5c-2.8-0.5-5.2-1.1-7.2-1.6L260.3,85.9z M293,87.5
		c2.2-0.2,4.5-0.5,6.7-0.8l-3.4,5.7c-2.3,0.3-4.5,0.5-6.7,0.7L293,87.5z M282,88c2.2,0,4.7-0.1,7.3-0.2l-3.4,5.3c0,0,0,0.1,0,0.1
		c-2.5,0.1-4.9,0.1-7.2,0L282,88z M271.2,87.5c2.5,0.2,4.9,0.4,7.2,0.4l-3.2,5c-2.5-0.2-4.8-0.5-7-0.8L271.2,87.5z M282.7,96.3
		c8.1,0,17.2-1,26.9-3.7c0.4,1.2,1.1,2.3,2,3.4v8c-11.7,3.7-22.8,4.7-32.2,4.3c-0.2,0-0.3,0-0.5,0c-13.8-0.5-23.8-3.8-26.9-4.8V91.5
		C256.7,93.1,267.9,96.3,282.7,96.3z M275.5,118.3c2.3,0.2,4.7,0.3,7.3,0.3c0,0,0.1,0,0.1,0l-7.8,12c-2.5-0.2-4.8-0.5-7-0.8
		L275.5,118.3z M272.3,110.9c2,0.2,4.2,0.4,6.4,0.5l4,4c-2.1,0-4.2-0.1-6.1-0.2L272.3,110.9z M286.5,118.5c2.4-0.1,4.8-0.3,7.3-0.5
		l-7.9,12.6c0,0.1-0.1,0.1-0.1,0.2c-2.5,0.1-4.9,0-7.2-0.1L286.5,118.5z M283,111.5c2.1,0,4.3-0.1,6.5-0.2l4.2,3.6
		c-2.3,0.3-4.6,0.4-6.8,0.5L283,111.5z M311.7,149.3c-1.2,0.4-2.4,0.7-3.6,1.1l-3.7-3c2.4-0.5,4.8-1.2,7.3-1.9V149.3z M304.4,151.3
		c-2.3,0.5-4.5,1-6.7,1.3l-4-3.4c2.2-0.2,4.5-0.6,6.9-1c0,0,0,0,0,0L304.4,151.3z M311.7,142.3c-29.2,9.2-54.4,1.3-59.5-0.5v-12.7
		c4.5,1.5,15.7,4.8,30.5,4.8c8.6,0,18.5-1.1,28.9-4.3V142.3z M293.7,153.1c-2.3,0.3-4.6,0.4-6.8,0.5l-3.9-3.9c2.1,0,4.3-0.1,6.5-0.2
		L293.7,153.1z M282.7,153.7c-2.1,0-4.2-0.1-6.1-0.2l-4.3-4.3c2,0.2,4.2,0.4,6.4,0.5L282.7,153.7z M271.8,153.1
		c-2.2-0.2-4.3-0.6-6.3-0.9c0,0-0.1-0.1-0.1-0.1l-4.8-4.8c2,0.4,4.2,0.9,6.6,1.2L271.8,153.1z M252.2,145c0.8,0.3,1.8,0.6,3,0.9
		c0.1,0.2,0.2,0.3,0.3,0.5l4.7,4.7c-3.9-0.9-6.7-1.8-8-2.3V145z M289.4,130.6l8.3-13.2c0,0,0,0,0,0c2.2-0.3,4.5-0.8,6.8-1.3
		l-8.3,13.8C293.8,130.2,291.6,130.4,289.4,130.6z M311.7,126.4c-4,1.3-7.9,2.2-11.6,2.9l8.5-14c0-0.1,0.1-0.1,0.1-0.2
		c1-0.3,2.1-0.6,3.1-0.9V126.4z M311.7,111c-1.2,0.4-2.4,0.7-3.5,1l-3.7-3c2.4-0.5,4.8-1.2,7.2-1.9V111z M304.5,113
		c-2.3,0.5-4.5,1-6.7,1.3l-4-3.4c2.2-0.2,4.5-0.6,6.9-1L304.5,113z M264.9,129.2c-2.8-0.5-5.2-1.1-7.2-1.6l6.7-10.7
		c2.3,0.4,4.9,0.8,7.7,1.1L264.9,129.2z M265.6,113.9c0-0.1-0.1-0.1-0.1-0.2l-4.7-4.7c2,0.4,4.2,0.9,6.6,1.2l4.5,4.5
		C269.7,114.6,267.6,114.3,265.6,113.9z M261.2,116.2l-6.6,10.5c-1-0.3-1.8-0.6-2.4-0.8v-12.2C254.1,114.4,257.1,115.3,261.2,116.2z
		 M252.2,110.5v-3.8c0.8,0.3,1.8,0.6,3,1c0.1,0.1,0.2,0.3,0.3,0.4l4.8,4.8C256.4,111.9,253.6,111,252.2,110.5z M252.2,152
		c1.9,0.6,4.9,1.6,8.8,2.4l-6.4,10.3c-1-0.3-1.8-0.6-2.4-0.8V152z M264.2,155.1c2.3,0.4,4.9,0.8,7.7,1.1l-7,11
		c-2.8-0.5-5.2-1.1-7.2-1.6L264.2,155.1z M275.3,156.6c2.3,0.2,4.8,0.3,7.4,0.3l-7.6,11.7c-2.5-0.2-4.8-0.5-7-0.8L275.3,156.6z
		 M286.3,156.8c2.4-0.1,4.8-0.3,7.3-0.5l-7.7,12.3c-0.1,0.1-0.1,0.2-0.1,0.3c-2.5,0.1-4.9,0-7.2-0.1L286.3,156.8z M297.5,155.7
		c2.2-0.3,4.5-0.8,6.8-1.3l-8.2,13.5c-2.3,0.3-4.5,0.5-6.7,0.7L297.5,155.7z M308.4,153.5c1.1-0.3,2.2-0.6,3.3-0.9v11.9
		c-4,1.3-7.9,2.2-11.7,2.9L308.4,153.5z M252.2,182.8c0.8,0.3,1.7,0.6,2.9,0.9c0.1,0.3,0.2,0.5,0.4,0.7l4.5,4.5
		c-3.8-0.9-6.4-1.8-7.8-2.2V182.8z M300.4,186c0.1,0.1,0.1,0.1,0.2,0.2l3.7,3c-2.3,0.5-4.5,0.9-6.7,1.3l-4-3.4
		C295.7,186.8,298,186.4,300.4,186z M311.7,86.6c-1.2,0.6-2,1.7-2.3,3c-3.1,0.9-6.2,1.6-9.3,2.2l3.5-5.8c3-0.7,5.8-1.5,8-2.5V86.6z
		 M259.6,73.2c0.4-0.1,0.8-0.2,1.3-0.3c5.8-1.3,13.2-2.1,21-2.1c7.8,0,15.3,0.7,21,2.1c0.5,0.1,0.9,0.2,1.3,0.3
		c5,1.3,6.8,2.6,7.3,3.2c-0.5,0.5-2,1.7-6.3,2.9c-0.7,0.2-1.4,0.4-2.2,0.6c-5.8,1.3-13.2,2.1-21,2.1c-7.8,0-15.3-0.7-21-2.1
		c-0.8-0.2-1.6-0.4-2.2-0.6c-4.3-1.2-5.9-2.4-6.3-2.9C252.9,75.9,254.6,74.6,259.6,73.2z M257.2,85.1l-2.5,4
		c-1.1-0.3-1.9-0.6-2.5-0.8v-5C253.7,84,255.4,84.6,257.2,85.1z M252.2,198.1v-8.3c1.9,0.6,4.9,1.6,8.8,2.4l-5,8
		C253.7,199.4,252.5,198.6,252.2,198.1z M280.3,203.8l6-9.2c2.4-0.1,4.8-0.3,7.3-0.5l-6.1,9.6c-1.8,0.1-3.6,0.1-5.6,0.1
		C281.4,203.8,280.8,203.8,280.3,203.8z M311.7,198.1c-0.5,0.8-3.5,2.5-9.7,3.9l6.3-10.4c1,0.4,2,0.7,3,0.8c0.1,0,0.3,0,0.4,0V198.1
		z M330,139.7c-1.1,9.6-3.9,19.7-9.4,27.8c-0.9,1.3-1.8,2.6-2.9,3.8v-71.3c0.7,0.2,1.5,0.4,2.2,0.5c0.3,0,0.5,0.1,0.8,0.1
		c-0.3-0.1-0.1-0.1,0.6,0.1c-0.1,0-0.2,0-0.3,0c0,0,0.2,0.1,0.5,0.2c0.1-0.1,1.6,0.7,0.1,0.1c0,0,0,0,0,0c0.1,0.1,0.2,0.2,0.4,0.3
		c0.1,0.1,0.2,0.2,0.3,0.2c-0.1-0.1-0.2-0.3-0.4-0.4c0.8,0.7,0.9,0.8,0.4,0.4c0.2,0.3,0.5,0.5,0.7,0.8c0.2,0.2,0.8,1.1,1,1.2
		c-0.1-0.2-0.2-0.3-0.3-0.5c0.3,0.4,0.4,0.5,0.3,0.5c0.5,0.7,0.9,1.4,1.3,2.1c1,1.7,1.3,2.6,2,4.6C330.6,119.6,331.1,130,330,139.7z
		"/>
	<g>
		<path class="st138" d="M257.9,173c-1,0-1.8,0.8-1.8,1.8c0,1,0.8,1.8,1.8,1.8s1.8-0.8,1.8-1.8C259.7,173.8,258.9,173,257.9,173z"/>
		<path class="st138" d="M305.9,176.7c1,0,1.8-0.8,1.8-1.8c0-1-0.8-1.8-1.8-1.8s-1.8,0.8-1.8,1.8
			C304.1,175.9,304.9,176.7,305.9,176.7z"/>
		<path class="st138" d="M298.3,174.9c-1,0-1.8,0.8-1.8,1.8c0,1,0.8,1.8,1.8,1.8c1,0,1.8-0.8,1.8-1.8
			C300.1,175.7,299.3,174.9,298.3,174.9z"/>
		<path class="st138" d="M265.2,174.9c-1,0-1.8,0.8-1.8,1.8c0,1,0.8,1.8,1.8,1.8s1.8-0.8,1.8-1.8
			C267.1,175.7,266.2,174.9,265.2,174.9z"/>
		<path class="st138" d="M272.6,176.1c-1,0-1.8,0.8-1.8,1.8c0,1,0.8,1.8,1.8,1.8s1.8-0.8,1.8-1.8
			C274.4,176.9,273.6,176.1,272.6,176.1z"/>
		<path class="st138" d="M289.8,176.1c-1,0-1.8,0.8-1.8,1.8c0,1,0.8,1.8,1.8,1.8c1,0,1.8-0.8,1.8-1.8
			C291.6,176.9,290.8,176.1,289.8,176.1z"/>
		<path class="st138" d="M281.1,176.6c-1,0-1.8,0.8-1.8,1.8c0,1,0.8,1.8,1.8,1.8s1.8-0.8,1.8-1.8
			C282.9,177.4,282.1,176.6,281.1,176.6z"/>
		<path class="st138" d="M257.9,134.7c-1,0-1.8,0.8-1.8,1.8c0,1,0.8,1.8,1.8,1.8s1.8-0.8,1.8-1.8
			C259.7,135.5,258.9,134.7,257.9,134.7z"/>
		<path class="st138" d="M305.9,138.4c1,0,1.8-0.8,1.8-1.8c0-1-0.8-1.8-1.8-1.8s-1.8,0.8-1.8,1.8
			C304.1,137.6,304.9,138.4,305.9,138.4z"/>
		<path class="st138" d="M298.3,140.3c1,0,1.8-0.8,1.8-1.8c0-1-0.8-1.8-1.8-1.8c-1,0-1.8,0.8-1.8,1.8
			C296.5,139.4,297.3,140.3,298.3,140.3z"/>
		<path class="st138" d="M265.2,136.6c-1,0-1.8,0.8-1.8,1.8c0,1,0.8,1.8,1.8,1.8s1.8-0.8,1.8-1.8
			C267.1,137.4,266.2,136.6,265.2,136.6z"/>
		<path class="st138" d="M272.6,137.7c-1,0-1.8,0.8-1.8,1.8c0,1,0.8,1.8,1.8,1.8s1.8-0.8,1.8-1.8
			C274.4,138.6,273.6,137.7,272.6,137.7z"/>
		<path class="st138" d="M289.8,141.4c1,0,1.8-0.8,1.8-1.8c0-1-0.8-1.8-1.8-1.8c-1,0-1.8,0.8-1.8,1.8
			C288,140.6,288.8,141.4,289.8,141.4z"/>
		<path class="st138" d="M281.1,138.3c-1,0-1.8,0.8-1.8,1.8c0,1,0.8,1.8,1.8,1.8s1.8-0.8,1.8-1.8
			C282.9,139.1,282.1,138.3,281.1,138.3z"/>
		<path class="st138" d="M257.9,100.6c1,0,1.8-0.8,1.8-1.8c0-1-0.8-1.8-1.8-1.8s-1.8,0.8-1.8,1.8C256,99.7,256.9,100.6,257.9,100.6z
			"/>
		<path class="st138" d="M305.9,100.6c1,0,1.8-0.8,1.8-1.8c0-1-0.8-1.8-1.8-1.8s-1.8,0.8-1.8,1.8
			C304.1,99.7,304.9,100.6,305.9,100.6z"/>
		<path class="st138" d="M298.3,102.5c1,0,1.8-0.8,1.8-1.8c0-1-0.8-1.8-1.8-1.8c-1,0-1.8,0.8-1.8,1.8
			C296.5,101.6,297.3,102.5,298.3,102.5z"/>
		<path class="st138" d="M265.2,102.5c1,0,1.8-0.8,1.8-1.8c0-1-0.8-1.8-1.8-1.8s-1.8,0.8-1.8,1.8
			C263.4,101.6,264.2,102.5,265.2,102.5z"/>
		<path class="st138" d="M272.6,103.6c1,0,1.8-0.8,1.8-1.8c0-1-0.8-1.8-1.8-1.8s-1.8,0.8-1.8,1.8
			C270.8,102.8,271.6,103.6,272.6,103.6z"/>
		<path class="st138" d="M289.8,103.6c1,0,1.8-0.8,1.8-1.8c0-1-0.8-1.8-1.8-1.8c-1,0-1.8,0.8-1.8,1.8
			C288,102.8,288.8,103.6,289.8,103.6z"/>
		<path class="st138" d="M281.1,104.2c1,0,1.8-0.8,1.8-1.8c0-1-0.8-1.8-1.8-1.8s-1.8,0.8-1.8,1.8
			C279.3,103.3,280.1,104.2,281.1,104.2z"/>
	</g>
</g>
<path class="st139" d="M173.3,108.9V96.6c0-0.2,0-0.4,0-0.6c-0.5-3.5-4.9-5.9-14.3-7.7c-7.9-1.5-18.3-2.4-29.4-2.4l-8.7,0.2
	c-8.1,0.3-15.6,1.1-21.6,2.2c-9.4,1.8-13.8,4.2-14.3,7.7c0,0.2,0,0.4,0,0.6v92.2c0,0.4,0.1,0.9,0.3,1.2c1.5,4,8.6,5.8,14.7,6.9
	c7.9,1.5,18.3,2.3,29.2,2.3c10.9,0,21.3-0.8,29.2-2.3c6.1-1.1,13.1-2.9,14.6-6.8c0.2-0.4,0.3-0.8,0.3-1.3v-9.5
	c13.4-3.7,23.1-16.3,25-30.7C200.8,130.5,191.2,112.9,173.3,108.9z M186.5,147.3c-1.1,8-5.8,18.4-13.2,23.5v-55
	c4.2,1.8,7.6,5.9,9.7,9.8C186.5,132.2,187.5,139.9,186.5,147.3z"/>
<path class="st140" d="M160,99.2c-6.5,1.5-16.8,2.7-30.9,2.7c-14.1,0-24.4-1.3-30.9-2.7c-3.9-0.9-6.4-1.8-7.5-2.6
	c1.2-0.9,4.3-1.9,9.1-2.9c5.3-1.1,12.8-2,22.4-2.3l7.9-0.1c12.4,0.1,21.9,1.1,28.2,2.4c4.8,1,7.8,2,9.1,2.9
	C166.3,97.4,163.8,98.3,160,99.2z"/>
<g>
	<path class="st138" d="M338.7,260.4c-4.6-7.7-11.9-14.4-21-16.5v-10.2c0-0.2,0-0.4,0-0.5c-0.9-8.7-22.7-11.1-35.7-11.1
		c-13,0-34.9,2.3-35.8,11.1c0,0.2,0,0.4,0,0.5v121.9c0,9.2,22.5,11.6,35.8,11.6c13.3,0,35.8-2.4,35.8-11.6v-6.3
		c14.1-2.9,22.2-18.5,25.9-31C348.9,299.9,348.9,277.4,338.7,260.4z M330,297.1c-1.1,9.6-3.9,19.7-9.4,27.8
		c-0.9,1.3-1.8,2.6-2.9,3.8v-71.3c0.7,0.2,1.5,0.4,2.2,0.5c0.3,0,0.5,0.1,0.8,0.1c-0.3-0.1-0.1-0.1,0.6,0.1c-0.1,0-0.2,0-0.3,0
		c0,0,0.2,0.1,0.5,0.2c0.1-0.1,1.6,0.7,0.1,0.1c0,0,0,0,0,0c0.1,0.1,0.2,0.2,0.4,0.3c0.1,0.1,0.2,0.2,0.3,0.2
		c-0.1-0.1-0.2-0.3-0.4-0.4c0.8,0.7,0.9,0.8,0.4,0.4c0.2,0.3,0.5,0.5,0.7,0.8c0.2,0.2,0.8,1.1,1,1.2c-0.1-0.2-0.2-0.3-0.3-0.5
		c0.3,0.4,0.4,0.5,0.3,0.5c0.5,0.7,0.9,1.4,1.3,2.1c1,1.7,1.3,2.6,2,4.6C330.6,276.9,331.1,287.3,330,297.1z"/>
	<path class="st125" d="M305.2,236.6c-0.7,0.2-1.4,0.4-2.2,0.6c-5.8,1.3-13.2,2.1-21,2.1c-7.8,0-15.3-0.7-21-2.1
		c-0.8-0.2-1.6-0.4-2.2-0.6c-4.3-1.2-5.9-2.4-6.3-2.9c0.5-0.5,2.2-1.8,7.3-3.2c0.4-0.1,0.8-0.2,1.3-0.3c5.8-1.3,13.2-2.1,21-2.1
		c7.8,0,15.3,0.7,21,2.1c0.5,0.1,0.9,0.2,1.3,0.3c5,1.3,6.8,2.6,7.3,3.2C311.1,234.2,309.5,235.4,305.2,236.6z"/>
</g>
</svg>
