<?xml version="1.0" encoding="utf-8"?>
<!-- Generator: Adobe Illustrator 21.1.0, SVG Export Plug-In . SVG Version: 6.00 Build 0)  -->
<svg version="1.1" id="Calque_1" xmlns="http://www.w3.org/2000/svg" xmlns:xlink="http://www.w3.org/1999/xlink" x="0px" y="0px"
	 viewBox="0 0 432 432" style="enable-background:new 0 0 432 432;" xml:space="preserve">
<style type="text/css">
	.st0{fill:#333333;}
	.st1{fill:#BF924C;}
	.st2{fill:#E6E6E6;}
	.st3{fill:#801422;}
	.st4{fill:#6F4436;}
	.st5{fill:#BE9B7B;}
	.st6{fill:#FBB03B;}
	.st7{fill:#D37A20;}
	.st8{fill:#1A1A1A;}
	.st9{fill:#EE7EB0;}
	.st10{fill:#FFD744;}
	.st11{fill:#78CFDE;}
	.st12{fill:#AA4B57;}
	.st13{fill:#B3B3B3;}
	.st14{fill:#66472D;}
	.st15{fill:#4C71A8;}
	.st16{fill:#D18FAF;}
	.st17{fill:#578FC8;}
	.st18{fill:#D9B442;}
	.st19{fill:#8C6E54;}
	.st20{fill:#3C2F2F;}
	.st21{fill:#9FAF88;}
	.st22{fill:#7E8D66;}
	.st23{fill:#D6A1AD;}
	.st24{fill:#FCD5D2;}
	.st25{fill:#BA2C38;}
	.st26{fill:#BF926B;}
	.st27{fill:#5B9DC1;}
	.st28{fill:#F4923E;}
	.st29{fill:#282C35;}
	.st30{fill:#EBB2A5;}
	.st31{fill:#CF6557;}
	.st32{fill:#7FB9BC;}
	.st33{fill:#154B67;}
	.st34{fill:#EAD5B6;}
	.st35{fill:#4D9164;}
	.st36{fill:#C59E73;}
	.st37{fill:#EEC7A0;}
	.st38{fill:#EC9294;}
	.st39{fill:#D2523D;}
	.st40{fill:#BEC1A4;}
	.st41{fill:#939176;}
	.st42{fill:#F8CACC;}
	.st43{fill:#F1949B;}
	.st44{fill:#59A5AD;}
	.st45{fill:#11937F;}
	.st46{fill:#406C70;}
	.st47{fill:#6FAFC6;}
	.st48{fill:#EF777F;}
	.st49{fill:#F3C186;}
	.st50{fill:#F6AD4B;}
	.st51{fill:none;}
	.st52{fill:#579B5E;}
	.st53{fill:#C69C6D;}
	.st54{fill:#4B8599;}
	.st55{fill:#D09596;}
	.st56{fill:#91B468;}
	.st57{fill:#F9C9CC;}
	.st58{fill:#2D302A;}
	.st59{fill:#D17475;}
	.st60{fill:#C1272D;}
	.st61{fill:#736357;}
	.st62{fill:#92B4C4;}
	.st63{fill:#A67C52;}
	.st64{fill:#F7931E;}
	.st65{fill:#B2151B;}
	.st66{fill:#D7A356;}
	.st67{fill:#B88D52;}
	.st68{fill:#8B514D;}
	.st69{fill:#727D6D;}
	.st70{fill:#F6A865;}
	.st71{fill:#F885C1;}
	.st72{fill:#4DC497;}
	.st73{fill:#AAA39B;}
	.st74{fill:#564336;}
	.st75{fill:#006837;}
	.st76{fill:#953D3D;}
	.st77{fill:#BEAF98;}
	.st78{fill:#D06C5D;}
	.st79{fill:#CCCCCC;}
	.st80{fill:#961F21;}
	.st81{fill:#C1934D;}
	.st82{fill:#F7CAC9;}
	.st83{fill:#FF8B85;}
	.st84{fill:#EE5977;}
	.st85{fill:#FDC111;}
	.st86{fill:#53BFD3;}
	.st87{fill:#CCCE01;}
	.st88{fill:#FD8C84;}
	.st89{fill:#92C142;}
	.st90{fill:#FFD066;}
	.st91{fill:#DC042B;}
</style>
<g>
	<g>
		<g>
			<g>
				<path class="st5" d="M67.7,221.3c-2.6,0-5.3,0-7.8-1c-1-0.4-2-0.9-2.7-1.6c-2.3-2-2.1-5,0.3-6.9c1.3-1.1,2.9-1.5,4.6-1.6
					c2.8-0.3,5.5,0.1,8.2,0.5c4.6,0.8,8.9,2.3,13.1,4.5c0.4,0.2,0.9,0.5,1.2,0.8c1,0.9,1,2.2-0.2,2.9c-0.5,0.3-1.1,0.5-1.6,0.6
					c-4.2,0.8-8.5,1.6-12.8,1.8C69.2,221.3,68.5,221.3,67.7,221.3z"/>
				<path class="st5" d="M94.4,214.3c-5.4-0.7-10.4-2.6-14.8-5.9c-1.3-1-2.3-2.2-3-3.7c-1-2.4,0.2-4.5,2.8-4.9
					c1.4-0.2,2.7,0,3.9,0.5c2.6,1,4.9,2.4,6.9,4.2c2,1.7,4.1,3.4,5.7,5.6c0.4,0.6,0.8,1.2,1.1,1.8c0.6,1.5-0.1,2.4-1.7,2.5
					C95,214.4,94.7,214.3,94.4,214.3z"/>
				<path class="st5" d="M82.1,234.1c-1.7-0.1-3-0.6-3.8-2.1c-0.8-1.5-0.7-3,0.3-4.4c0.6-0.8,1.3-1.5,2.1-2.1
					c4.4-3,9.1-5.4,14.4-6.3c1.8-0.3,2.8,0.8,2.1,2.5c-0.3,0.8-0.7,1.6-1.2,2.2c-1.9,2.7-4.2,5.2-6.9,7.2c-1.8,1.4-3.8,2.4-6.1,2.8
					C82.7,234,82.4,234.1,82.1,234.1z"/>
			</g>
			<g>
				<path class="st5" d="M364.3,221.3c2.6,0,5.3,0,7.8-1c1-0.4,2-0.9,2.7-1.6c2.3-2,2.1-5-0.3-6.9c-1.3-1.1-2.9-1.5-4.6-1.6
					c-2.8-0.3-5.5,0.1-8.2,0.5c-4.6,0.8-8.9,2.3-13.1,4.5c-0.4,0.2-0.9,0.5-1.2,0.8c-1,0.9-1,2.2,0.2,2.9c0.5,0.3,1.1,0.5,1.6,0.6
					c4.2,0.8,8.5,1.6,12.8,1.8C362.8,221.3,363.5,221.3,364.3,221.3z"/>
				<path class="st5" d="M337.6,214.3c5.4-0.7,10.4-2.6,14.8-5.9c1.3-1,2.3-2.2,3-3.7c1-2.4-0.2-4.5-2.8-4.9c-1.4-0.2-2.7,0-3.9,0.5
					c-2.6,1-4.9,2.4-6.9,4.2c-2,1.7-4.1,3.4-5.7,5.6c-0.4,0.6-0.8,1.2-1.1,1.8c-0.6,1.5,0.1,2.4,1.7,2.5
					C337,214.4,337.3,214.3,337.6,214.3z"/>
				<path class="st5" d="M349.9,234.1c1.7-0.1,3-0.6,3.8-2.1c0.8-1.5,0.7-3-0.3-4.4c-0.6-0.8-1.3-1.5-2.1-2.1
					c-4.4-3-9.1-5.4-14.4-6.3c-1.8-0.3-2.8,0.8-2.1,2.5c0.3,0.8,0.7,1.6,1.2,2.2c1.9,2.7,4.2,5.2,6.9,7.2c1.8,1.4,3.8,2.4,6.1,2.8
					C349.3,234,349.6,234.1,349.9,234.1z"/>
			</g>
		</g>
		<g>
			<g>
				<g>
					<path class="st4" d="M154.5,238.6c-1.2-2.2-1.9-4.6-2.6-7c-1.2-4.2-2.3-8.4-3.5-12.5c-0.9-3.2-2-6.3-3.1-9.4
						c-1.1-3.4-2.6-6.6-4.3-9.7c-1-1.9-2.2-3.7-3.5-5.4c-0.8-1-1.4-2.2-1.8-3.4c-0.5-1.4-0.1-2.5,1.3-3.2c0.8-0.4,1.7-0.7,2.5-0.7
						c3.2-0.2,6.4-0.1,9.4,1c0.9,0.3,1.7,0.7,2.5,1.1c3.4,1.7,6.6,3.6,9.6,6c2.6,2.1,4.7,4.7,6.6,7.5c1.6,2.3,3.1,4.6,4.3,7.1
						c1.4,3.1,2.3,6.4,3,9.7c0.3,1.7,0.6,3.4,0.9,5.1c0.4,2.1,0.5,4.2,0.6,6.3c0.1,3.8-0.6,7.5-1.7,11.2c-0.6,1.9-1.5,3.7-2.6,5.3
						c-1.9,2.9-5.2,3.7-8.3,2c-1.8-1-3.2-2.4-4.6-3.9C157.3,243.5,155.8,241.1,154.5,238.6z"/>
					<path class="st4" d="M138.9,200.1c2.1,4.6,3.8,9,5.2,13.5c1.5,5,3.1,9.9,4.7,14.8c0.9,2.7,1.8,5.4,2.7,8.1
						c1,3.2,2.7,6.1,4.7,8.9c0.8,1.1,1.6,2.3,2.4,3.5c0.3,0.5,0.5,1.1,0.6,1.6c0.2,1-0.4,1.9-1.4,2.3c-0.4,0.1-0.8,0.2-1.1,0.2
						c-1.5,0.1-3-0.1-4.4-0.6c-6.1-1.9-11.3-5.2-16.2-9.3c-2.4-2.1-4.6-4.3-6.5-6.9c-1.7-2.3-3-4.9-4-7.6c-1.1-3.1-2-6.2-2.6-9.5
						c-0.5-2.7-0.7-5.5-0.4-8.2c0.3-2.4,0.6-4.9,1-7.3c0.6-3.1,1.9-6,3.4-8.8c1.5-2.7,4.5-3.2,6.9-1.3c1.4,1.1,2.5,2.6,3.5,4.1
						C137.9,198.4,138.4,199.4,138.9,200.1z"/>
				</g>
				<g>
					<path class="st4" d="M271.4,245.1c0.8-1.6,1.4-3.3,1.9-5.1c0.9-3,1.6-6,2.5-9c0.7-2.3,1.5-4.6,2.2-6.8c0.8-2.4,1.9-4.7,3.1-7
						c0.7-1.4,1.6-2.7,2.5-3.9c0.6-0.8,1-1.6,1.3-2.5c0.3-1,0.1-1.8-0.9-2.3c-0.6-0.3-1.2-0.5-1.8-0.5c-2.3-0.1-4.6-0.1-6.8,0.8
						c-0.6,0.2-1.2,0.5-1.8,0.8c-2.5,1.2-4.8,2.6-6.9,4.3c-1.9,1.5-3.4,3.4-4.8,5.4c-1.2,1.6-2.3,3.3-3.1,5.2c-1,2.2-1.7,4.6-2.1,7
						c-0.2,1.2-0.5,2.5-0.7,3.7c-0.3,1.5-0.4,3-0.4,4.5c0,2.8,0.5,5.4,1.3,8.1c0.4,1.4,1.1,2.7,1.9,3.9c1.4,2.1,3.8,2.6,6,1.4
						c1.3-0.7,2.3-1.7,3.3-2.8C269.4,248.6,270.5,246.9,271.4,245.1z"/>
					<path class="st4" d="M282.7,217.3c-1.5,3.3-2.7,6.5-3.7,9.8c-1.1,3.6-2.2,7.2-3.4,10.7c-0.6,2-1.3,3.9-2,5.8
						c-0.8,2.3-1.9,4.4-3.4,6.4c-0.6,0.8-1.2,1.7-1.7,2.5c-0.2,0.3-0.3,0.8-0.4,1.2c-0.1,0.8,0.3,1.4,1,1.6c0.3,0.1,0.5,0.1,0.8,0.1
						c1.1,0,2.1-0.1,3.2-0.4c4.4-1.3,8.2-3.8,11.7-6.7c1.8-1.5,3.3-3.1,4.7-5c1.2-1.7,2.2-3.5,2.9-5.5c0.8-2.2,1.5-4.5,1.9-6.8
						c0.3-2,0.5-4,0.3-6c-0.2-1.8-0.4-3.5-0.7-5.3c-0.4-2.3-1.4-4.3-2.5-6.3c-1.1-1.9-3.3-2.3-5-1c-1,0.8-1.8,1.9-2.5,2.9
						C283.4,216,283,216.7,282.7,217.3z"/>
				</g>
			</g>
			<g>
				<path class="st19" d="M107.6,312.9c0-2.3,1.6-4.2,3.9-4.7c2.1-0.5,4.2,0.5,5.5,2.5c2.6,4-0.6,8.3-3.9,8.7
					c-2,0.3-3.9-0.9-4.4-2.9c-0.1-0.3-0.3-0.7-0.4-1C107.9,314.6,107.6,313.8,107.6,312.9z"/>
				<path class="st19" d="M160.4,342.4c1.4,0.1,2.8,0.6,3.5,2.1c0.5,0.9,1,1.9,1.2,3c0.7,3.2-2.3,5.8-5.5,4.7
					c-2.1-0.7-3.4-2.2-3.9-4.3C155.2,345.2,157.6,342.4,160.4,342.4z"/>
				<path class="st19" d="M111.8,134.6c-0.1,1.9-1,3.5-2.9,4.4c-0.7,0.3-1.4,0.4-2.2,0.3c-1.4-0.2-2.5-0.8-3.5-1.8
					c-2.5-2.7-1-5.9,1.1-7.1c2.1-1.2,5.4-0.4,6.8,1.6C111.6,132.7,111.8,133.5,111.8,134.6z"/>
				<path class="st19" d="M299.4,94.1c-0.1,1.6-0.9,3.1-2.5,4.1c-0.6,0.4-1.3,0.5-2.1,0.4c-0.5-0.1-1-0.1-1.5-0.2
					c-2.1-0.5-3.6-2.6-3.4-4.9c0.2-2.3,1.9-4.2,4-4.5C296.9,88.6,299.4,90.7,299.4,94.1z"/>
				<path class="st19" d="M160,84.1c3.2,0,5.4,3.2,4.3,6.2c-0.2,0.4-0.5,0.9-0.9,1.2c-0.5,0.4-1.1,0.7-1.6,0.9
					c-0.9,0.5-1.9,0.5-2.9,0.2c-2-0.7-3.4-3.2-3-5.2C156.4,85.5,158.2,84.1,160,84.1z"/>
				<path class="st19" d="M349.6,289.7c0,2.1-2,4.1-4.2,4.1c-2.1,0-4.1-1.8-4.1-3.9c-0.1-1.7,0.8-3,2.2-3.9c1.3-0.8,2.7-0.7,4.1,0.1
					c0.4,0.2,0.7,0.4,1.1,0.5c0.4,0.2,0.7,0.5,0.8,0.9C349.5,288.2,349.5,288.9,349.6,289.7z"/>
				<path class="st19" d="M285.6,324c0,1-0.2,1.9-0.9,2.7c-1.1,1.3-2.6,1.6-4.1,1.1c-1.8-0.5-3.4-3-3.2-4.8c0.2-1.5,1-2.6,2.5-3.2
					c1.5-0.6,2.9-0.4,4.1,0.6C285.1,321.3,285.6,322.6,285.6,324z"/>
				<path class="st19" d="M239.8,78.1c0-1.8,1.1-3.4,2.6-3.9c1.5-0.5,3.1-0.1,4.2,1.2c1.3,1.5,1.8,3.5,0.5,5.3c-0.4,0.6-1,1-1.7,1.1
					c-0.2,0-0.5,0.1-0.7,0.2c-1.3,0.4-2.5,0-3.4-0.9C240.4,80.1,239.9,79.1,239.8,78.1z"/>
				<path class="st19" d="M336.8,190.5c0.1-1.6,0.8-2.9,2.2-3.6c1.4-0.7,2.8-0.5,4,0.4c1.3,1,1.8,2.4,1.5,4
					c-0.3,1.6-1.1,2.7-2.6,3.4c-0.8,0.3-1.5,0.3-2.3,0C338.4,194.1,336.7,192.4,336.8,190.5z"/>
				<path class="st19" d="M95.5,236.4c2.2,0,4.1,2,4.1,4.3c0,2.1-1.9,3.9-4,3.8c-2.1,0-4-2-4-4.3C91.7,238,93.4,236.4,95.5,236.4z"
					/>
				<path class="st19" d="M84.1,262.5c0,1.6-0.9,2.9-2.2,3.5c-1.3,0.5-2.7,0.2-3.7-0.9c-1-1.1-1.5-2.5-1.1-4c0.5-2,2.5-3.2,4.3-2.5
					c0.4,0.1,0.9,0.4,1.1,0.7C83.5,260.2,84,261.4,84.1,262.5z"/>
				<path class="st19" d="M341.9,247.7c-2.7,0-4.6-3.2-3.3-5.6c0.6-1.2,1.6-2.1,3.1-2.2c1.4-0.1,2.6,0.7,3.1,2
					c0.2,0.5,0.3,1,0.5,1.4C345.8,245.6,344.1,247.7,341.9,247.7z"/>
				<path class="st19" d="M88.6,192.8c0-2,1.6-3.6,3.6-3.6c1.9,0,3.6,1.7,3.6,3.5c0,2-1.8,3.8-3.7,3.8
					C90.1,196.6,88.6,194.9,88.6,192.8z"/>
				<path class="st19" d="M356.8,163.9c0.1,0,0.3,0,0.4,0c1.6,0.2,3,1.9,3.1,3.8c0.1,1.6-1,3.1-2.6,3.5c-0.6,0.1-1.3,0.1-1.8-0.1
					c-1.4-0.4-2.4-1.9-2.5-3.4c-0.1-1.6,0.5-2.7,1.9-3.5C355.7,164.1,356.2,164,356.8,163.9C356.7,163.9,356.8,163.9,356.8,163.9z"
					/>
				<path class="st19" d="M356.9,253.4c0-1.9,1.6-3.6,3.4-3.6c1.9,0,3.5,1.5,3.5,3.4c0,1.9-1.7,3.6-3.6,3.6
					C358.4,256.9,356.9,255.3,356.9,253.4z"/>
			</g>
		</g>
	</g>
	<g>
		<g>
			<path class="st20" d="M299.2,313.9c0,0.3,0,0.6,0,1c-0.1,4.5-0.1,9-0.3,13.5c-0.2,5.3-0.7,10.6-2.3,15.7
				c-0.5,1.5-1.1,2.9-1.8,4.3c-1.7,3.3-4.4,5.2-8,6c-5.7,1.2-11.1,0.3-16.3-2.3c-6.1-3-10.9-7.4-14.8-12.9c-2.6-3.8-4.7-7.8-6-12.3
				c0-0.1-0.1-0.3-0.2-0.5c-3.8,3.7-7.7,7.2-12.7,9c0,0.1,0,0.1,0,0.2c0.7,0.1,1.4,0.2,2.2,0.3c3.4,0.5,6.8,1.3,10,2.7
				c4.6,2,7.9,5.4,9.5,10.2c1.4,4.1,1.2,8.1-0.5,12.1c-1.4,3.4-4.1,5.6-7.8,6.2c-1.9,0.3-3.7,0-5.5-0.7c-3-1.2-5.6-3.1-7.9-5.3
				c-2.8-2.7-4.9-5.9-6.7-9.2c-3.2-5.9-5.3-12.2-6.8-18.7c-0.9-3.9-1.5-7.9-1.8-12c0-0.2,0-0.3-0.1-0.6c-0.4,0.2-0.8,0.4-1.1,0.6
				c-3,2.1-6.3,3.8-9.5,5.6c-6.3,3.3-13,5.6-20,6.8c-0.1,0-0.2,0-0.4,0.1c0.3,0.2,0.4,0.3,0.6,0.4c1.7,0.8,3.2,1.8,4.7,3
				c4.6,3.7,7.2,8.5,7.9,14.3c0.4,3.3-0.2,6.6-1.8,9.5c-1.4,2.5-3.3,4.4-6.1,5.3c-2.1,0.7-4.2,0.5-6.2-0.3c-2.2-0.8-4.1-2.1-5.9-3.7
				c-3.8-3.5-6.2-7.8-7.7-12.6c-1.2-3.9-1.8-7.9-2-12c-0.2-3-0.1-5.9,0.1-8.9c0.2-3.7,0.7-7.4,1.3-11.1c0.7-4,1.5-8,2.5-11.9
				c0-0.1,0-0.2,0.1-0.4c-3.4-0.2-6.7-0.4-10.1-0.6c-0.6,1.6-1.2,3.1-1.8,4.6c-2.3,5.5-5.5,10.4-10,14.4c-2.6,2.3-5.4,4.3-8.7,5.4
				c-3.3,1.1-6.6,1.5-10,0.7c-5-1.1-8.3-4.2-10.1-8.9c-1.3-3.4-1.5-6.9-1-10.5c0.8-5.8,3.2-11,6.5-15.9c0.6-0.9,1.2-1.8,1.8-2.7
				c0,0,0-0.1,0-0.2c-0.2,0-0.5,0-0.7,0.1c-3.8,1-7.6,1.9-11.4,2.9c-4.5,1.1-9,1.8-13.6,1.7c-2.8-0.1-5.6-0.3-8.2-1.2
				c-6.3-2.2-10.5-6.5-12.5-12.8c-2.1-6.6-1.2-13.1,2.3-19.1c3.8-6.4,9.1-11,16.1-13.5c3.4-1.2,6.9-1.6,10.5-0.8
				c2.8,0.6,5.3,1.9,7.3,4c2.3,2.5,3.6,5.4,3.3,9c-0.1,1.5-0.6,3-1.3,4.4c-0.1,0.2-0.3,0.4-0.4,0.6c-0.4,0.4-0.9,0.6-1.4,0.4
				c-0.6-0.2-0.9-0.6-0.9-1.2c0-0.8,0.1-1.7,0.3-2.5c0.3-1.2,0.3-2.4,0.1-3.6c-0.2-1.3-0.9-2.2-2.3-2.6c-1.6-0.5-3.2-0.5-4.8,0.1
				c-1.4,0.5-2.7,1.1-4,1.8c-4.1,2.3-7.7,5.3-10.8,8.8c-1.8,2-3.3,4.2-4.2,6.8c-1.8,4.9-1,9.4,2.1,13.5c2,2.6,4.9,4,8.1,4.5
				c3,0.5,6.1,0.4,9.1-0.1c1.9-0.3,3.8-0.5,5.7-0.9c2.4-0.6,4.8-1.3,7.3-2c1.2-0.3,2.4-0.8,3.7-1.2c1.4-0.4,2.7-0.8,4.2-1.3
				c-0.1-0.3-0.2-0.6-0.3-0.9c-1.1-2.7-1.5-5.6-0.6-8.4c1.4-4.6,4.5-7.4,9.1-8.5c6.9-1.6,14.6,1.4,18.8,7.2c2.1,2.9,3.3,6.2,4,9.8
				c0.9,4.5,0.7,8.9-0.2,13.3c-0.1,0.3-0.1,0.6-0.2,0.9c3.4,0.5,6.7,0.8,10.1,0.8c0.1-0.2,0.2-0.4,0.3-0.7c2.1-6.2,4.6-12.2,7.7-18
				c3.2-6,7-11.5,11.6-16.5c2.1-2.3,4.3-4.3,6.9-5.9c1.8-1.2,3.8-2.1,6-2.3c3.1-0.4,5.7,0.7,7.7,3.1c1.2,1.5,1.8,3.4,2.1,5.3
				c0.6,3.4,0.1,6.7-1,9.9c-1.2,3.6-2.9,6.9-5,10c-2.2,3.2-4.6,6.3-7.6,8.9c-1.4,1.2-2.9,2.4-4.3,3.5c-1.3,1-2.6,2-4,2.9
				c-1.7,1.2-3.4,2.3-5.4,2.9c-0.5,0.2-0.7,0.5-0.9,0.9c-2.4,7.3-4.7,14.6-6.2,22.2c-0.2,0.8-0.3,1.5-0.4,2.3c0.2,0,0.3,0.1,0.4,0.1
				c4.2-0.1,8.4-0.5,12.4-1.9c4.4-1.5,8.7-3.4,12.8-5.4c2.9-1.4,5.6-3.1,8.3-4.9c0.6-0.4,0.8-0.9,0.8-1.6c0-9.5,1.3-18.8,3.9-27.9
				c1.2-4.1,2.7-8.1,4.8-11.9c1.4-2.6,3.3-4.9,5.2-7.1c0.9-1,2-1.9,3.1-2.7c1.4-1,3.1-1.5,4.9-1.3c2,0.2,3.6,1.2,4.8,2.7
				c1.1,1.4,1.8,3.1,2.2,4.9c0.6,2.7,0.5,5.3,0,8c-1.4,7.4-4,14.4-8.2,20.7c-2.1,3.3-4.6,6.4-7.5,9.1c-0.4,0.4-0.5,0.7-0.5,1.2
				c0,6.2,0.4,12.4,1.3,18.6c0.1,0.6,0.2,1.3,0.3,2c0.3-0.1,0.5-0.2,0.7-0.2c2.4-0.9,4.5-2.3,6.5-4c1.8-1.6,3.6-3.2,5.4-4.7
				c0.5-0.4,0.6-0.8,0.4-1.4c-1.2-6.5-0.8-12.9,1.3-19.1c1.2-3.4,2.8-6.5,5-9.2c2.6-3.1,5.8-5.3,9.8-6.1c4.4-0.9,8.1,0.3,11,4
				c2.6,3.3,2.9,7,2,10.9c-0.9,3.9-2.9,7-6.2,9.3c-2.5,1.9-5.2,3.5-8,4.9c-0.8,0.4-1.7,0.7-2.6,1.1c0,0.2,0,0.3,0.1,0.5
				c2.2,8,5.9,15.2,11.4,21.5c1.8,2.1,3.8,3.9,6.2,5.5c1.9,1.2,3.9,2.1,6.1,2.6c2.5,0.5,4.5-0.1,6.3-1.9c1.7-1.7,2.6-3.8,3.2-6.1
				c0.6-2.3,1-4.6,1.1-6.9c0.4-6.3,0.3-12.6,0.2-18.9c0-1.3,0-2.6,0-3.9c0-0.4-0.1-0.7-0.3-1c-3.9-5.5-6.6-11.5-8.1-18
				c-1-4.1-1.2-8.3-1-12.6c0.3-5,2.4-9.2,6.4-12.3c1.7-1.3,3.6-2.2,5.7-2.3c3.4-0.2,6.2,0.9,8,3.9c1.5,2.3,2.3,4.9,2.8,7.6
				c0.9,5.6,0,10.9-2.8,15.8c-0.9,1.5-1.8,3-2.8,4.5c-0.1,0.1-0.1,0.3-0.2,0.4c1.9,3.6,4.2,6.9,7.5,9.3c2.3,1.7,4.9,2.6,7.7,2.9
				c3.9,0.3,7-1.4,9.4-4.4c0.7-0.9,1.3-2,1.8-3c1.6-3.2,2.6-6.6,3.3-10.1c0.9-4.8,0.8-9.7,0.4-14.6c-0.3-3.3-0.7-6.5-1.5-9.7
				c-0.8-3.3-2-6.5-3.4-9.6c-1.3-2.8-2.7-5.6-4-8.4c-0.7-1.4-1.3-2.8-1.6-4.4c0-0.2-0.1-0.4-0.1-0.6c-0.1-1.8,1.3-2.8,3-2
				c0.8,0.4,1.5,1,2,1.7c0.7,1.1,1.5,2.2,2.1,3.4c0.7,1.5,1.4,3.1,1.9,4.7c1.2,3.7,2.3,7.4,3.4,11.1c1.1,3.9,1.9,7.9,2.2,12
				c0.3,3.7,0.2,7.3-0.2,11c-0.3,2.5-0.5,4.9-1,7.4c-1,5.1-2.8,9.9-5.4,14.5c-1.3,2.3-2.8,4.4-4.5,6.3c-2.2,2.4-4.7,4.3-7.7,5.5
				c-4.5,1.9-8.9,1.6-13.1-0.7c-2.2-1.1-4-2.6-5.8-4.3c-0.2-0.2-0.5-0.5-0.7-0.7C299.3,313.9,299.3,313.9,299.2,313.9z M149.6,298.3
				c-0.8,0.7-1.5,1.3-2.2,2c-1.3,1.3-2.6,2.5-3.8,3.8c-2.7,3.2-4.7,6.9-5.8,10.9c-0.7,2.4-0.8,4.8,0,7.2c0.6,1.8,1.8,2.9,3.7,3.3
				c0.6,0.1,1.3,0.1,1.9,0c2.6-0.4,5-1.2,7.1-2.7c1.8-1.2,3.4-2.6,4.9-4c2.8-2.8,5.4-5.8,7.5-9.1c1-1.7,1.8-3.5,2.6-5.4
				C159.7,303.5,154.5,301.5,149.6,298.3z M194.9,301.1c0,0,0.1,0.1,0.1,0.1c0.3-0.1,0.5-0.3,0.8-0.4c3-1.5,5.7-3.4,8.2-5.5
				c4.9-4.1,8.9-8.9,11.8-14.6c1.9-3.8,3-7.9,2.9-12.2c0-1-0.1-2.1-0.5-3.1c-0.3-0.7-0.9-1.1-1.7-1.1c-0.6,0-1.3,0.1-1.8,0.5
				c-0.7,0.6-1.5,1.1-2.1,1.8c-1.4,1.4-2.6,2.9-3.7,4.6c-2.5,3.7-4.6,7.6-6.5,11.7c-2.6,5.6-5,11.4-7.2,17.2
				C195.1,300.5,195,300.8,194.9,301.1z M166.8,300.4c0.2-1.3,0.5-2.5,0.6-3.7c0.6-4.3,0.3-8.5-0.7-12.7c-1-4-6.1-7.9-11.4-6.4
				c-3,0.8-4.9,2.8-5.9,5.7c-1,3-0.7,5.8,1.1,8.4c1.6,2.3,3.7,4.1,6.3,5.3c2.4,1.2,4.9,2,7.5,2.7C165.1,300,165.8,300.1,166.8,300.4
				z M186.2,334.4c-0.1,0.4-0.1,0.6-0.1,0.8c-0.3,2.7-0.3,5.5-0.2,8.2c0.1,2.4,0.4,4.9,1,7.3c0.8,2.9,1.8,5.7,3.7,8.2
				c1,1.3,2.2,2.4,3.7,3.1c1.8,0.9,3.5,0.5,4.7-1.2c0.8-1,1.2-2.2,1.6-3.4c0.7-2.5,0.6-5.1,0.3-7.6c-0.3-2.9-1.5-5.4-3.3-7.7
				c-2.4-3.2-5.6-5.4-9.2-6.9C187.7,334.9,187,334.7,186.2,334.4z M237.2,339c0,0.2,0,0.2,0,0.3c0.2,0.7,0.3,1.5,0.5,2.2
				c1,4.1,2.4,8.1,4.3,11.8c1,2,2.3,3.9,3.9,5.5c1.7,1.7,3.6,2.8,6,3.2c1.4,0.2,2.5-0.2,3.4-1.4c0.9-1.2,1.3-2.6,1.5-4.1
				c0.4-3-0.3-5.8-1.5-8.4c-1.4-2.9-3.5-5.2-6.5-6.4c-3-1.2-6.1-2-9.2-2.4C238.6,339.1,237.9,339,237.2,339z M260.7,315
				c0.3-0.1,0.6-0.1,0.8-0.3c1.8-0.9,3.7-1.7,5.5-2.6c1.3-0.7,2.4-1.6,3.3-2.7c1.4-1.6,2.5-3.3,3.5-5.1c1.1-2.3,1.5-4.6,1.2-7.1
				c-0.4-2.8-2.9-4.9-6.1-3.8c-0.9,0.3-1.7,0.7-2.4,1.4c-0.7,0.6-1.3,1.3-1.9,2c-1.7,2.1-2.8,4.6-3.6,7.2
				C259.9,307.7,260.1,311.3,260.7,315z M234.5,306.3c0.1,0,0.1,0,0.2,0.1c0.6-0.8,1.2-1.5,1.8-2.3c3.2-4.2,5.6-8.8,7.6-13.7
				c1.5-3.7,2.9-7.5,3.5-11.5c0.4-2.3,0.3-4.4-0.8-6.5c-0.4-0.7-0.8-1.1-1.8-0.7c-0.6,0.2-1.2,0.5-1.6,1c-0.7,0.8-1.4,1.6-1.9,2.5
				c-0.6,1-1.1,2-1.6,3.1c-1.5,3.4-2.4,6.9-3.2,10.4c-0.9,4.2-1.6,8.4-1.9,12.7C234.7,303,234.6,304.6,234.5,306.3z M302.4,293.7
				c2.4-3.4,3.8-7.1,4.3-11c0.2-1.6,0.1-3.2,0-4.7c-0.2-2.8-1-5.5-2.3-8c-0.4-0.8-1-1.4-1.7-1.9c-0.8-0.5-1.6-0.6-2.3,0
				c-0.5,0.4-1,0.9-1.2,1.4c-0.5,1-0.9,2-1.1,3c-0.5,2.2-0.3,4.5-0.1,6.7c0.5,4.7,1.8,9.2,3.8,13.5
				C302,292.9,302.2,293.2,302.4,293.7z"/>
			<g>
				<path class="st20" d="M134,141.7c1.6,1.2,3.2,2.4,5.2,2.6c1,0.1,2,0.1,2.9-0.3c2.4-1,4-2.7,4.8-5.2c0.5-1.7,0.5-3.4,0.3-5.1
					c-0.7-6.5-2.9-12.6-6-18.4c-0.6-1.1-1.1-2.3-1.6-3.4c-0.3-0.7-0.5-1.5-0.4-2.3c0.2-1.6,1.4-2.5,3-2.3c0.6,0.1,1.2,0.2,1.8,0.5
					c1.1,0.6,2.2,1.3,3.3,2c3.5,2.6,6.7,5.4,9.8,8.4c3.3,3.3,6.7,6.6,10.1,9.8c0.1,0.1,0.3,0.2,0.6,0.3c-0.2-0.9-0.3-1.9-0.5-2.8
					c-0.5-2.5-1.5-4.8-2.3-7.2c-1.4-3.9-2.7-7.8-4.1-11.8c-0.3-0.8-0.5-1.7-0.6-2.6c-0.2-1.2,0.3-2.1,1.5-2.3c1.7-0.2,3.3-0.2,5-0.4
					c1.8-0.2,3.6-0.4,5.4-0.6c0.2,0,0.5-0.1,0.8-0.2c-0.1-0.6-0.3-1.2-0.4-1.9c-0.6-3.3-0.9-6.5-0.3-9.8c0.4-2.1,1.2-4,2.6-5.6
					c1.4-1.6,3.2-2.6,5.4-2.2c1.7,0.3,3.1,1.2,4.1,2.6c1,1.3,1.5,2.9,1.6,4.6c0.2,3.7-0.8,7-3.3,9.7c-0.1,0.1-0.2,0.2-0.3,0.3
					c0.1,0.2,0.1,0.3,0.2,0.5c1.5,2.8,3.3,5.4,5.7,7.6c1.7,1.5,3.6,2.7,5.8,3.1c1.5,0.3,2.9,0.1,4.2-0.9c1.8-1.3,3.2-2.9,4.2-4.8
					c1.1-2,1.7-4.2,2-6.5c0.6-6.2,0-12.3-1.6-18.4c0-0.2-0.1-0.3-0.2-0.6c-0.3,0-0.6,0.1-0.9,0.1c-6.2,0.9-10.8-4.1-10.9-9.1
					c0-0.9,0.1-1.7,0.4-2.6c0.7-1.7,2.3-2.5,4.1-1.9c1.1,0.3,2,0.9,2.8,1.7c2.4,2,4,4.5,5.3,7.3c0.1,0.2,0.2,0.5,0.3,0.7
					c0,0.1,0.1,0.1,0.2,0.2c0.8-0.4,1.7-0.8,2.5-1.2c2.4-1.2,4.9-2.4,7.5-3.1c1-0.3,2-0.5,3.1-0.6c2.9-0.2,5.3,1,7,3.4
					c0.9,1.2,1.4,2.6,1.9,4c0.9,2.9,1.4,5.9,1.4,8.9c0,4-0.2,7.9-0.2,11.9c-0.1,2.7-0.1,5.4-0.1,8.1c0,0.7,0.1,1.4,0.3,2.1
					c0.1,0.3,0.2,0.6,0.3,0.9c0.6-0.2,0.9-0.5,1.2-0.9c0.5-0.7,1-1.5,1.4-2.3c1-2.5,1.9-5,2.9-7.5c0.4-1,0.8-2,1.2-2.9
					c0.3-0.6,0.7-1.2,1.2-1.6c0.5-0.5,1.2-0.6,1.7-0.3c0.6,0.4,0.8,0.9,0.7,1.6c-0.1,0.5-0.2,1.1-0.4,1.6c-1.4,3.7-3.1,7.2-5,10.6
					c-0.6,1-1.1,2-1.8,3c-0.6,0.9-1.2,1.8-2,2.5c-2.3,2.3-5.3,2.4-7.9,0.4c-1-0.8-1.9-1.8-2.6-3c-1.4-2.2-2.1-4.7-2.5-7.2
					c-0.5-3.5-0.5-7-0.4-10.6c0.1-4.9,0.2-9.7,0.2-14.6c0-0.8-0.2-1.7-0.3-2.5c-0.2-0.9-0.5-1.1-1.5-1c-0.6,0.1-1.2,0.3-1.8,0.5
					c-1.5,0.6-3.1,1.2-4.6,1.8c-0.7,0.3-1.5,0.6-2.3,0.9c0,0.2,0,0.4,0.1,0.5c1.4,5.4,2.1,10.8,1.9,16.3c-0.2,5.4-1.2,10.6-3.4,15.5
					c-0.7,1.6-1.7,3.2-2.8,4.5c-4.2,5.1-11.3,5.9-16.6,2.7c-3.2-1.9-5.7-4.6-7.5-7.8c-0.9-1.7-1.7-3.5-2.5-5.2
					c-0.1-0.2-0.2-0.5-0.3-0.7c-3.7,0.2-7.3,0.5-11,0.7c0.1,0.3,0.2,0.6,0.4,0.9c2.1,5.1,4.1,10.1,5.5,15.4c0.7,2.5,1.1,5.1,1.7,7.6
					c0.2,1,0.5,2.1,0.7,3.2c0.2,1,0.2,2-0.1,2.9c-0.5,1.9-2.1,2.8-4,2.5c-1-0.2-1.9-0.6-2.8-1.1c-2.3-1.3-4.5-3-6.6-4.7
					c-3.8-3.1-7.6-6.3-11.1-9.8c-0.1-0.1-0.1-0.1-0.4-0.3c0.2,0.4,0.3,0.7,0.4,1c1.7,4.4,3.4,8.7,4.6,13.3c0.4,1.5,0.7,3,0.8,4.6
					c0.4,7-4.4,10.5-9,11.5c-1.1,0.2-2.3,0.3-3.5,0.5c0.1,0.2,0.2,0.4,0.4,0.5c1,1.2,2,2.4,2.9,3.6c1.4,1.9,2.6,3.9,3.1,6.2
					c0.2,1.1,0.3,2.3,0.3,3.4c0,1.8-1,3.1-2.4,4.1c-1.5,1.1-3.2,1.6-5,1.7c-1.9,0.1-3.8-0.2-5.7-0.6c-3.3-0.7-6.4-2-9.4-3.4
					c-2.6-1.2-5.1-2.4-7.7-3.6c-2.4-1.1-4.8-2.2-7.4-3c-0.7-0.2-1.5-0.3-2.3-0.3c-0.9,0-1.2,0.3-1,1.2c0.1,0.8,0.3,1.6,0.6,2.4
					c1,2.5,2.2,4.9,3.6,7.1c1.5,2.2,3.1,4.4,4.6,6.6c0.5,0.7,1,1.4,1.5,2.1c0.4,0.6,0.7,1.2,1,1.9c0.7,1.8-0.1,3.2-2,3.4
					c-1.3,0.2-2.5,0-3.7-0.3c-3-0.6-5.8-1.7-8.7-2.8c-3-1.2-6-2.6-9-3.9c-2.1-0.9-4-2.1-5.7-3.7c-0.5-0.5-1-1-1.5-1.5
					c-0.2-0.3-0.4-0.6-0.6-0.9c-0.9-1.7-0.3-3.3,1.5-3.8c1.5-0.4,3-0.3,4.4,0.1c2.4,0.6,4.6,1.6,6.8,2.5c3.8,1.6,7.4,3.5,11,5.5
					c0.2,0.1,0.4,0.2,0.6,0.2c-0.2-0.2-0.4-0.5-0.5-0.7c-3-3.8-5.6-7.9-7.4-12.4c-1.1-2.5-1.9-5.2-2.1-7.9c-0.1-1.2,0-2.5,0.3-3.6
					c0.9-3.1,3.6-4.7,7-4.2c1.7,0.3,3.3,0.8,4.8,1.7c1.8,1,3.6,2.1,5.4,3.2c3.6,2.4,7.1,4.8,10.6,7.2c3.1,2.1,6.3,3.9,9.7,5.3
					c0.7,0.3,1.4,0.5,2.1,0.7c0.4,0.1,0.8,0.1,1.2,0.1c1.2,0,1.7-0.6,1.5-1.8c-0.1-1.2-0.5-2.3-1.1-3.4c-1.4-2.7-3.3-5.1-5.3-7.4
					c-0.4-0.5-0.8-0.9-1.2-1.4c-0.8-0.9-1.8-1.7-2.9-2.3c-3.5-1.7-6-4.5-7.8-7.9c-1.5-2.8-2.6-5.8-3-9c-0.3-2.1-0.2-4.2,0.6-6.2
					c0.7-1.8,2-3.1,3.8-3.8c1.7-0.6,3.4-0.3,5.1,0.4c2.9,1.3,4.5,3.6,5.3,6.5c0.7,2.5,0.5,5-0.3,7.4
					C135.1,138.8,134.5,140.2,134,141.7z M132,139.9c1.4-3,2.2-6,1.8-9.2c-0.2-1.7-1-3-2.4-4c-0.8-0.6-1.8-0.9-2.8-0.9
					c-1,0-1.6,0.5-1.9,1.5c-0.3,0.9-0.3,1.8-0.1,2.7c0.3,1.3,0.7,2.7,1.2,3.9C128.6,136.1,130,138.1,132,139.9z M181.6,96.1
					c0.1,0,0.1,0,0.1-0.1c1.9-2.6,2.5-5.5,1.4-8.6c-0.2-0.6-0.6-1.2-1.1-1.6c-0.9-0.9-2.5-0.3-2.7,0.9c-0.1,0.4-0.1,0.9-0.1,1.3
					c0.2,2.8,1.1,5.4,2.2,8C181.5,96.1,181.5,96.1,181.6,96.1z M201.8,75.6c-0.4-1.8-2.6-5.3-3.9-6.4c-0.5-0.4-0.9-0.4-1.2,0.2
					c-0.2,0.3-0.3,0.6-0.3,0.9c-0.2,2.4,1.7,4.9,4.1,5.4C200.9,75.8,201.3,76,201.8,75.6z"/>
				<path class="st20" d="M275.5,111.8c0.4,0.1,0.9,0.1,1.3,0.2c3.9,0.3,7.9,0.2,11.8,0c0.2,0,0.4-0.1,0.6,0c1.2,0.2,2.1-0.3,3-1
					c2.5-1.9,5.2-3.3,8.3-3.9c2.5-0.4,5-0.2,7.4,0.8c1.9,0.8,3.4,2.3,4.4,4.1c0.4,0.7,0.7,1.3,1,2c0.6-0.2,1.2-0.4,1.8-0.6
					c0.6-0.1,1.2-0.2,1.9-0.1c1.7,0.1,3,1.4,3.3,3.2c0.1,1.2-0.1,2.3-0.5,3.4c-0.6,1.4-1.4,2.8-2.4,4c-2.4,2.9-4.8,5.8-7.2,8.7
					c-1.8,2.2-3.7,4.5-5.4,6.8c-0.8,1-1.4,2.1-2,3.3c-1.1,2.1-0.4,3.6,1.9,4.4c0.8,0.3,1.5,0.4,2.4,0.1c1.9-0.5,3.7-1.3,5.3-2.3
					c2.9-1.8,5.5-3.9,8.2-6.1c2-1.6,4-3.1,6.1-4.6c1.3-1,2.8-1.7,4.3-2.3c1.3-0.5,2.6-0.7,4-0.7c2,0.1,3.5,1.2,4.1,3
					c0.6,1.7,0.5,3.4-0.1,5c-0.4,1.1-0.9,2.2-1.6,3.2c-1.6,2.2-3.3,4.4-5,6.6c-1,1.2-2,2.3-3.1,3.5c-1.4,1.5-2.6,3.2-3.7,5
					c-0.3,0.4-0.5,0.9-0.7,1.4c-0.6,1.5,0,2.9,1.5,3.5c1.3,0.5,2.7,0.5,4.1,0.1c1.7-0.5,3.4-1.2,4.9-2.2c1.8-1.2,3.6-2.4,5.5-3.6
					c1-0.6,2-1.1,3-1.6c0.5-0.2,1.1-0.3,1.6-0.4c1.9-0.2,3.4,1,3.6,2.9c0.1,1,0,1.9-0.3,2.8c-0.5,1.6-1.2,3-2.1,4.3
					c-1.2,1.6-2.4,3.2-3.8,4.7c-1.5,1.7-3.2,3.3-4.8,4.9c-0.2,0.2-0.5,0.4-0.8,0.6c0.4,0.3,0.7,0.4,1,0.6c2.3,1.1,4.7,1.8,7.2,2.3
					c3.4,0.7,6.8,0.7,10.2,0.5c1.3-0.1,2.5-0.1,3.8-0.1c0.5,0,1.1,0.1,1.6,0.2c0.6,0.2,1.1,0.6,1.2,1.3c0.1,0.7-0.2,1.3-0.7,1.7
					c-0.7,0.6-1.6,0.7-2.5,0.9c-2,0.3-3.9,0.2-5.9,0.1c-5.5-0.3-10.6-2-15.6-4.3c-0.7-0.3-1.4-0.7-2.1-1.2c-0.2,0.2-0.5,0.5-0.8,0.7
					c-5.2,4.9-10.8,9.1-17,12.5c-4.5,2.5-9.3,4.3-14.4,5.1c-2.9,0.5-5.8,0.7-8.7,0.1c-4.1-0.8-7.3-4-8-8c-0.3-1.3-0.2-2.7,0.1-4
					c0.5-2.3,1.5-4.4,3.1-6.3c2.7-3.2,6.1-5.4,9.9-7.1c4.5-2,9.2-3,14.1-3c4.3,0,8.3,1,12.3,2.6c1,0.4,1.9,0.8,2.9,1.2
					c0.3,0.2,0.6,0.2,0.9-0.1c1.9-1.8,3.8-3.7,5.6-5.5c0,0,0-0.1,0.1-0.2c-0.2,0.1-0.4,0.1-0.6,0.2c-3.2,1.2-6.5,1.6-9.9,1.2
					c-4.1-0.4-6.7-2.8-8-6.9c-1.1-3.4-0.6-6.9,0.4-10.2c0.6-1.8,1.4-3.5,2.5-5.1c0.2-0.3,0.3-0.5,0.4-0.9c-0.2,0.1-0.4,0.3-0.6,0.4
					c-1.7,1.3-3.4,2.6-5.2,3.8c-1.9,1.3-3.9,2.3-6.1,2.8c-1.7,0.4-3.3,0.4-5,0c-3.4-0.8-5.7-3.5-6-7.1c-0.2-2.5,0.2-4.8,1-7.1
					c0.5-1.4,1.1-2.8,1.7-4.3c0.1-0.3,0.2-0.5,0.4-1c-0.4,0.3-0.7,0.5-1,0.6c-2.2,1.5-4.5,2.7-7.2,3.2c-0.9,0.2-1.9,0.3-2.8,0.1
					c-1.9-0.2-3.2-1.2-4.2-2.7c-0.8-1.3-1.1-2.8-1.2-4.4c-0.1-2.5,0.3-4.9,1.2-7.2c0.7-1.8,1.5-3.6,2.7-5.1c0.1-0.2,0.3-0.4,0.5-0.7
					c-4.2-0.2-8.3-0.3-12.5-0.5c-0.1,0.8-0.1,1.6-0.3,2.4c-1.3,6-4.4,10.7-10.2,13.2c-1.5,0.7-3.2,1.1-4.8,1.3
					c-1.3,0.1-2.6,0.1-3.8-0.2c-3.3-0.9-6.2-2.5-8.3-5.2c-2.1-2.8-2.1-5.9,0.1-8.7c1.2-1.5,2.6-2.6,4.3-3.4c2.6-1.2,5.3-2.2,8.3-2.5
					c1.7-0.2,3.3-0.2,5.1-0.3c-0.1-0.3-0.2-0.6-0.3-0.9c-0.8-1.5-1.6-3-2.4-4.5c-1.3-2.3-2.7-4.7-4-7c-1.1-2.1-2-4.3-2.4-6.7
					c-0.6-3.9,0-7.6,2.4-10.9c1.8-2.5,4.3-3.9,7.4-4.1c2.6-0.1,4.9,0.7,6.7,2.6c1.7,1.8,2.1,4.1,1.9,6.5c0,0.1,0,0.3-0.1,0.4
					c-0.2,0.5-0.6,0.8-1.1,0.8c-0.5,0-0.9-0.3-1-0.8c-0.1-0.3-0.1-0.6-0.2-1c-0.1-0.5-0.1-1-0.2-1.5c-0.4-2.2-1.9-3.4-3.9-4.2
					c-0.6-0.2-1.2,0.1-1.7,0.5c-1.8,1.4-2.6,3.3-2.2,5.5c0.2,1.2,0.6,2.4,1.1,3.6c1.3,3.5,3,6.8,4.8,10c1.5,2.7,2.9,5.4,3.7,8.4
					C274.8,108.9,275.1,110.3,275.5,111.8z M326.8,173c-0.2-0.1-0.3-0.2-0.4-0.2c-6.1-2.5-12.4-3.5-19-2.2
					c-4.6,0.9-8.9,2.6-12.7,5.3c-1.6,1.1-2.9,2.5-4,4.1c-0.9,1.3-1.5,2.7-1.6,4.2c-0.2,1.9,0.5,3.8,2.4,4.7c0.5,0.2,1.1,0.4,1.6,0.5
					c2.4,0.4,4.8,0.1,7.1-0.5c3.4-0.8,6.5-2.2,9.6-3.7c6.2-3.1,11.7-7.2,16.8-11.8C326.6,173.2,326.7,173.1,326.8,173z M263.5,113.4
					c-1,0.1-2.3,0.2-3.5,0.4c-3.2,0.5-5.9,1.8-8.3,3.9c-0.8,0.7-1.6,1.6-2,2.6c-0.7,1.5-0.4,3,0.7,4.2c0.9,0.9,2,1.4,3.2,1.6
					c4.2,0.6,7.9-0.4,11.1-3.2c2.7-2.4,3.2-5.4,2.4-8.8c-0.1-0.4-0.3-0.5-0.6-0.5C265.5,113.5,264.6,113.4,263.5,113.4z
					 M311.3,115.2c-1.3-1.4-2.9-1.9-4.7-1.1c-1.2,0.5-2.3,1.2-3.3,1.9c-3.8,2.6-6.9,5.8-9.8,9.2c-1,1.1-1.8,2.4-2.6,3.6
					c-0.4,0.6-0.7,1.3-0.9,2c-0.2,0.8,0,1.1,0.8,1.1c0.7-0.1,1.5-0.2,2.2-0.4c1.9-0.6,3.5-1.7,4.9-3.1c2.5-2.4,5-4.8,7.4-7.3
					C307.2,119.1,309.2,117.2,311.3,115.2z"/>
			</g>
		</g>
		<g>
			<g>
				<path class="st5" d="M182.1,198.8c-0.1,0.6-0.3,1.1-0.6,1.6c-0.3,0.3-0.6,0.6-1.1,0.5c-0.4,0-0.8-0.2-1-0.6
					c-1.2-2.7,1.7-46.7,0.6-51.5c-0.3-1-0.4-2.1-0.4-3.1c-0.1-0.5-0.1-1,0.2-1.4c0.4-1.3,1.7-2,3.2-1.8c1.1,0.1,2,0.5,2.7,1.1
					c0.6,0.6,1.3,1.3,1.7,1.9c3.8,5,19.7,41.9,20.5,42.3c0.6-0.2-2.8-38.9-0.1-43.9c0.2-0.3,0.5-0.6,0.9-0.8
					c0.9-0.4,1.8-0.1,2.2,0.7c0.4,0.7,0.4,1.4,0.4,2.2c-0.3,43.1,1.1,28.3,0.1,51.1c0,0.5-0.1,0.9-0.2,1.3c-0.4,1.7-1.9,2.5-3.8,2.1
					c-1-0.2-1.8-0.6-2.5-1.2c-8.3-7.2-19.6-38.1-21-39.5C183.3,174.2,183.7,192.8,182.1,198.8z"/>
				<path class="st5" d="M259.9,151.6c0.1-0.3,0.2-0.6,0.4-1c0.2-0.4,0.4-0.8,0.8-1c0.7-0.5,1.6-0.2,1.8,0.6c0.1,0.5,0,1-0.2,1.5
					c-1,2.3-2.3,4.3-4.4,6c-0.4,0.4-0.6,0.7-0.4,1.3c4.2,11.5,0.5,35.9-15.2,41.1c-20.4,6.9-36.7-30.7-17.3-50
					c9.4-9.4,17.5-8,18.7-7.8c1,0.1,2,0.4,2.9,0.9c0.4,0.3,0.8,0.6,1.1,1c0.3,0.6,0.2,1-0.3,1.5c-0.4,0.4-0.8,0.4-1.3,0.2
					c-9.7-2.6-16.5,5.4-18.2,14.2c-8,43,27.9,48.5,27.5,5.8c-0.1-1.8-0.4-3.5-0.8-5.2c-0.1-0.6-0.4-0.6-0.9-0.5
					c-10.4,2.7-15.7-1.8-14.6-6.4c0.5-2.2,2.7-3.9,5.2-4.3c1.7-0.3,3.4-0.2,5,0.5c2.7,1,4.8,2.5,6.1,4.8c0.2,0.3,0.4,0.7,0.8,0.9
					C258.1,154.7,259.1,153.3,259.9,151.6z M253.5,157.1c-1.3-2.5-3.5-4.1-6.6-4.7c-0.7-0.1-1.3-0.1-2.1,0.2c-6,1.8,2.2,8,8.4,5.2
					C253.6,157.5,253.6,157.4,253.5,157.1z"/>
			</g>
			<g>
				<path class="st5" d="M209.9,223.8c-0.1,2.2,0,4.2,0.2,6.3c0.2,2,0.3,4,0.5,6.1c0.1,0.9,0.1,1.8,0.2,2.7c0,0.9,0.1,1.8,0.1,2.8
					c0,0.3,0,0.5,0,0.6c0,0.5-0.3,0.8-0.9,0.9c-0.6,0.1-1.1,0.1-1.6,0.1c-0.5,0-1.1,0.1-1.6,0.1c-0.9,0-1.4-0.4-1.7-1.3
					c0-0.1-0.1-0.3-0.1-0.4c0-0.1,0-0.3,0-0.4c-0.1-2.2-0.3-4.3-0.4-6.4c-0.1-2.1-0.2-4.3-0.3-6.4c-0.1-2-0.1-4-0.2-5.9
					c0-1.9-0.1-3.9-0.1-5.9V216c0-0.3-0.1-0.5-0.2-0.7s-0.3-0.2-0.7-0.2c-0.5,0-0.9,0-1.3,0s-0.9,0-1.3,0c-0.1,0-0.3,0-0.4,0
					c-0.2,0-0.3-0.1-0.4-0.1c-0.2-0.1-0.2-0.2-0.2-0.4c0-0.2,0.1-0.3,0.2-0.4c0.2-0.1,0.4-0.2,0.7-0.2c0.2,0,0.4,0,0.6,0
					c0.2,0,0.4,0,0.6,0l11.4,0.1c0.1,0,0.3,0,0.5,0c0.2,0,0.3,0.1,0.5,0.1c0.2,0.1,0.4,0.2,0.4,0.4c0.1,0.2-0.1,0.4-0.4,0.7
					c-0.2,0.1-0.3,0.1-0.5,0.1c-0.2,0-0.4,0-0.5,0h-2.4c-0.3,0-0.5,0.2-0.5,0.5v0.8c0,1.2,0.1,2.5,0.1,3.7
					C209.9,221.5,209.9,222.7,209.9,223.8z"/>
				<path class="st5" d="M232.4,216c0.7,1.3,1.2,2.9,1.5,4.7c0.3,1.8,0.4,3.7,0.4,5.7c0,2-0.2,3.9-0.6,5.9c-0.3,1.9-0.8,3.7-1.3,5.2
					c-0.8,2.2-1.7,3.7-2.8,4.7c-1.1,1-2.2,1.4-3.3,1.4s-2.3-0.4-3.4-1.3c-1.1-0.9-2.2-2-3.1-3.4c-0.9-1.4-1.7-3.1-2.3-5
					c-0.6-1.9-0.9-3.8-1-5.9c-0.1-2,0.1-4.1,0.7-6.2c0.5-2.1,1.5-4.1,2.9-6c0.7-1,1.6-1.7,2.5-2.2c1-0.5,2-0.8,3.2-1
					c1.5-0.2,2.8,0,4,0.6C230.7,213.7,231.7,214.6,232.4,216z M231.7,234.7c0.9-3,1.3-5.8,1.3-8.3c0-2.6-0.3-4.8-0.8-6.6
					c-0.5-1.8-1.2-3.2-2.1-4.2c-0.9-1-1.8-1.4-2.7-1.2c-0.9,0.2-1.7,1-2.5,2.4s-1.2,3.7-1.4,6.7c-0.1,2.1-0.1,4.1,0,6.1
					c0.2,2,0.4,3.8,0.8,5.4c0.4,1.6,0.9,2.9,1.4,4c0.6,1,1.2,1.6,1.8,1.8s1.3-0.2,2.1-1.2C230.3,238.7,231,237.1,231.7,234.7z"/>
			</g>
		</g>
	</g>
</g>
</svg>
